<svg width="110" height="110" viewBox="0 0 110 110" fill="none" xmlns="http://www.w3.org/2000/svg">
<g clip-path="url(#clip0_3362_76)">
<path d="M58.5828 54.9104L82.4552 78.7828C83.4694 79.797 83.4694 81.4413 82.4552 82.4554C81.441 83.4696 79.7967 83.4696 78.7825 82.4554L54.9102 58.5831L31.0378 82.4554C30.0236 83.4696 28.3793 83.4696 27.3651 82.4554C26.3509 81.4413 26.3509 79.797 27.3651 78.7828L51.2375 54.9104L27.3651 31.038C26.3509 30.0238 26.3509 28.3795 27.3651 27.3654C28.3793 26.3512 30.0236 26.3512 31.0378 27.3654L54.9102 51.2377L78.7825 27.3654C79.7967 26.3512 81.441 26.3512 82.4552 27.3654C83.4694 28.3795 83.4694 30.0238 82.4552 31.038L58.5828 54.9104Z" fill="black"/>
</g>
<defs>
<clipPath id="clip0_3362_76">
<rect width="110" height="110" fill="white"/>
</clipPath>
</defs>
</svg>
