<svg width="110" height="110" viewBox="0 0 110 110" fill="none" xmlns="http://www.w3.org/2000/svg">
<path fill-rule="evenodd" clip-rule="evenodd" d="M55.4156 33.8783H25.4626L30.0056 91.0693C30.0134 91.1474 30.0134 91.2295 30.0095 91.3076C30.0563 92.3896 30.3884 93.2412 31.0016 93.8545C31.6852 94.5381 32.7594 95.0147 34.2243 95.2842L55.4154 95.2803H76.6103C78.0712 95.0108 79.1455 94.5342 79.833 93.8506C80.4698 93.2139 80.8057 92.3233 80.8291 91.1787C80.8291 91.1396 80.833 91.1045 80.833 91.0654H80.8291L85.3721 33.8744L55.4156 33.8783ZM37.5756 47.9293C37.4935 46.8707 38.2865 45.941 39.3451 45.859C40.4037 45.777 41.3334 46.5699 41.4154 47.6285L44.0834 81.2305C44.1654 82.2891 43.3724 83.2188 42.3139 83.3008C41.2553 83.3828 40.3256 82.5899 40.2436 81.5313L37.5756 47.9293ZM69.4156 47.6285C69.4976 46.5699 70.4233 45.7769 71.4858 45.859C72.5444 45.9411 73.3374 46.8707 73.2553 47.9293L70.5873 81.5313C70.5053 82.5899 69.5757 83.3829 68.5171 83.3008C67.4585 83.2188 66.6655 82.2891 66.7476 81.2305L69.4156 47.6285ZM53.4896 47.777C53.4896 46.7106 54.3528 45.8512 55.4154 45.8512C56.4818 45.8512 57.3411 46.7144 57.3411 47.777V81.379C57.3411 82.4454 56.4779 83.3048 55.4154 83.3048C54.349 83.3048 53.4896 82.4415 53.4896 81.379V47.777ZM76.1656 24.129H23.1226C22.2007 24.129 21.3687 24.4766 20.7749 25.0313C20.2124 25.5626 19.8608 26.2852 19.8608 27.0743V30.0196H23.3803L55.4153 30.0235H90.9743L90.9704 27.0782C90.9704 26.2892 90.6188 25.5665 90.0563 25.0352C89.4626 24.4766 88.6305 24.1329 87.7086 24.1329H76.1656L76.1656 24.129ZM23.1226 20.2774H42.4776V19.4844C42.4776 17.1133 42.9736 14.918 43.7745 13.2969C44.7745 11.2617 46.3057 10 48.1261 10H62.7041C64.5244 10 66.0556 11.2617 67.0556 13.2969C67.8564 14.9219 68.3526 17.1172 68.3526 19.4844V20.2774H87.7076C89.6373 20.2774 91.4028 21.0274 92.688 22.2344C94.0044 23.4727 94.8208 25.1836 94.8208 27.0782V31.9532C94.8208 33.0196 93.9576 33.879 92.8951 33.879H89.2271L84.6646 91.371H84.6606C84.5903 93.5077 83.8872 95.246 82.5551 96.5819C81.2973 97.8397 79.516 98.6757 77.2113 99.0858C77.0629 99.1209 76.9106 99.1405 76.7543 99.1405L55.4143 99.1366H34.0743V99.1326C33.9688 99.1326 33.8634 99.1248 33.7579 99.1053C31.3868 98.7069 29.5587 97.8631 28.2735 96.578C26.9493 95.2538 26.2501 93.535 26.168 91.4218L26.1641 91.3671L21.5977 33.8751H17.9297C16.8633 33.8751 16 33.0118 16 31.9493L16.0039 27.0782C16.0039 25.1876 16.8203 23.4727 18.1367 22.2384C19.4258 21.0275 21.1875 20.2775 23.1211 20.2775L23.1226 20.2774ZM46.3336 20.2774H64.4976V19.4844C64.4976 17.6992 64.1577 16.1133 63.6069 14.9961C63.2593 14.2891 62.9311 13.8516 62.7046 13.8516H48.1266C47.9 13.8516 47.5719 14.2891 47.2243 14.9961C46.6735 16.1094 46.3336 17.6953 46.3336 19.4844L46.3336 20.2774Z" fill="#F5F5F5"/>
</svg>
