<svg width="110" height="110" viewBox="0 0 110 110" fill="none" xmlns="http://www.w3.org/2000/svg">
<path d="M55 95C65.609 95 75.781 90.7852 83.285 83.285C90.785 75.7811 95 65.609 95 55C95 44.391 90.7852 34.219 83.285 26.715C75.7811 19.215 65.609 15 55 15C44.391 15 34.219 19.2148 26.715 26.715C19.215 34.2189 15 44.391 15 55C15.0117 65.605 19.2305 75.773 26.73 83.27C34.2261 90.77 44.394 94.989 55 95ZM55 19.812C64.332 19.812 73.281 23.519 79.883 30.117C86.4807 36.7186 90.188 45.668 90.188 55C90.188 64.332 86.481 73.281 79.883 79.883C73.2814 86.4807 64.332 90.188 55 90.188C45.668 90.188 36.719 86.481 30.117 79.883C23.5193 73.2814 19.812 64.332 19.812 55C19.8237 45.6719 23.5347 36.727 30.128 30.129C36.7257 23.5352 45.671 19.824 54.999 19.813L55 19.812ZM48.4531 48.777C48.4531 47.4489 49.5312 46.3708 50.8593 46.3708H56.0937C56.7304 46.3708 57.3437 46.6247 57.7968 47.0778C58.246 47.5271 58.4999 48.1403 58.4999 48.777V79.339C58.4999 80.6671 57.4218 81.7452 56.0937 81.7452C54.7656 81.7452 53.6875 80.6671 53.6875 79.339V51.183H50.8594C49.5313 51.183 48.4531 50.1051 48.4531 48.777ZM50.0781 35.578C50.0781 33.5858 51.2773 31.7928 53.1172 31.0311C54.957 30.2694 57.0742 30.6913 58.4805 32.1014C59.8867 33.5076 60.3086 35.6248 59.5469 37.4608C58.7852 39.3006 56.9922 40.4999 55 40.4999C52.2852 40.496 50.0859 38.2968 50.0781 35.578Z" fill="black"/>
</svg>
